<?xml version="1.0" standalone="no"?><!DOCTYPE svg PUBLIC "-//W3C//DTD SVG 1.1//EN" "http://www.w3.org/Graphics/SVG/1.1/DTD/svg11.dtd"><svg t="1602228244537" class="icon" viewBox="0 0 1024 1024" version="1.1" xmlns="http://www.w3.org/2000/svg" p-id="1301" xmlns:xlink="http://www.w3.org/1999/xlink" width="200" height="200"><defs><style type="text/css"></style></defs><path d="M723.233 304l51.164 225.693-87.94 18.44c-7.17-16.573-26.808-26.323-46.484-22.197-19.677 4.126-32.621 20.71-31.068 38.46l-320.646 67.24-54.307-213.66 318.813-74.266c6.952 17.814 26.422 28.664 45.683 24.654 19.874-4.137 32.357-22.6 29.025-42.056L723.233 304z" fill="#EDF6FF" p-id="1302"></path><path d="M723.233 304l51.164 225.693-87.94 18.44c-7.17-16.573-26.808-26.323-46.484-22.197-19.677 4.126-32.621 20.71-31.068 38.46l-320.646 67.24-54.307-213.66 318.813-74.266c6.952 17.814 26.422 28.664 45.683 24.654 19.874-4.137 32.357-22.6 29.025-42.056L723.233 304z m-14.455 23.081l-62.295 14.512-0.112 0.668c-3.817 21.608-20.287 39.585-43.118 44.707l-0.892 0.193c-22.354 4.653-45.006-4.155-58.668-21.215l-0.273-0.346-286.035 66.63 44.948 176.837 288.879-60.578 0.063-0.249c5.205-19.906 21.919-35.98 43.898-40.909l0.86-0.186c22.28-4.672 44.987 3.056 58.943 18.993l0.432 0.501 55.949-11.733-42.579-187.825z" fill="#30699A" p-id="1303"></path><path d="M663.413 448.545c18.909 0 34.995-12.066 40.957-28.909H813V728H704.37c-5.962-16.842-22.048-28.91-40.957-28.91-18.91 0-34.996 12.068-40.958 28.91H205V419.636h417.455c5.962 16.843 22.049 28.91 40.958 28.91z" fill="#EDF6FF" p-id="1304"></path><path d="M622.455 419.636c5.962 16.843 22.049 28.91 40.958 28.91s34.995-12.067 40.957-28.91H813V728H704.37c-5.962-16.842-22.048-28.91-40.957-28.91-18.91 0-34.996 12.068-40.958 28.91H205V419.636h417.455z m171.345 19.2h-77.58l-0.273 0.426c-11.174 17.178-30.388 28.209-51.733 28.478l-0.801 0.005c-21.665 0-41.22-11.09-52.535-28.483l-0.273-0.426H224.2V708.8h386.404l0.274-0.425c11.175-17.179 30.389-28.21 51.733-28.479l0.802-0.005c21.664 0 41.22 11.09 52.534 28.484l0.273 0.425h77.58V438.836z" fill="#30699A" p-id="1305"></path><path d="M670.6 469.704v192h-19.2v-192h19.2zM533.076 607.582v19.2h-228.2v-19.2h228.2zM480.88 530.49v19.2H362.78v-19.2h118.098z" fill="#FFD543" p-id="1306"></path></svg>