<?xml version="1.0" standalone="no"?><!DOCTYPE svg PUBLIC "-//W3C//DTD SVG 1.1//EN" "http://www.w3.org/Graphics/SVG/1.1/DTD/svg11.dtd"><svg t="1602227112964" class="icon" viewBox="0 0 1024 1024" version="1.1" xmlns="http://www.w3.org/2000/svg" p-id="1302" xmlns:xlink="http://www.w3.org/1999/xlink" width="200" height="200"><defs><style type="text/css"></style></defs><path d="M713.6 378.94c21.208 0 38.4 17.192 38.4 38.4V790.6c0 21.208-17.192 38.4-38.4 38.4H310.4c-21.208 0-38.4-17.192-38.4-38.4V417.34c0-21.208 17.192-38.4 38.4-38.4l86.399-0.001 0.001 57.43c0 5.211 4.151 9.452 9.327 9.597l0.273 0.004a9.6 9.6 0 0 0 9.6-9.6l-0.001-57.431h192l0.001 57.43c0 5.211 4.151 9.452 9.327 9.597l0.273 0.004a9.6 9.6 0 0 0 9.6-9.6l-0.001-57.431H713.6z" fill="#E77779" p-id="1303"></path><path d="M291.2 788.303c0-14.543 11.79-26.333 26.333-26.333h350.534c14.543 0 26.333 11.79 26.333 26.333 0 14.544-11.79 26.333-26.333 26.333H317.533c-14.543 0-26.333-11.79-26.333-26.333z" fill="#E35E60" p-id="1304"></path><path d="M396.799 378.939l0.001 57.43c0 5.211 4.151 9.452 9.327 9.597l0.273 0.004c5.21 0 9.451-4.151 9.596-9.327l0.004-0.273-0.001-57.431h192l0.001 57.43c0 5.211 4.151 9.452 9.327 9.597l0.273 0.004c5.21 0 9.451-4.151 9.596-9.327l0.004-0.273-0.001-57.431H713.6c21.208 0 38.4 17.193 38.4 38.4V790.6c0 21.208-17.192 38.4-38.4 38.4H310.4c-21.208 0-38.4-17.192-38.4-38.4V417.34c0-21.208 17.192-38.401 38.4-38.401h86.399z m-19.2 19.199H310.4c-10.49 0-19.015 8.414-19.201 18.86v340.098l383.879-4.847 0.242 19.199-384.121 4.85V790.6c0 10.49 8.413 19.015 18.86 19.2H713.6c10.49 0 19.015-8.412 19.2-18.859V417.34c0-10.49-8.412-19.015-18.859-19.197l-0.341-0.004h-67.202l0.002 38.366-0.008 0.541-0.003 0.135c-0.431 15.414-12.933 27.741-28.322 27.986l-0.601 0.004-0.542-0.008-0.134-0.004c-15.414-0.43-27.741-12.933-27.986-28.32l-0.004-0.468-0.001-38.232H435.198l0.002 38.366-0.008 0.541-0.003 0.135c-0.431 15.414-12.933 27.741-28.322 27.986l-0.601 0.004-0.542-0.008-0.134-0.004c-15.414-0.43-27.741-12.933-27.986-28.32l-0.004-0.468-0.001-38.232z" fill="#30699A" p-id="1305"></path><path d="M663.46 483.04c10.725-7.951 25.736-5.526 33.529 5.418 6.826 9.586 5.848 22.529-1.71 30.936L752 599.05l-77.68 57.586-56.72-79.656c-10.172 4.735-22.537 1.684-29.363-7.902-7.793-10.943-5.415-26.26 5.31-34.211 9.396-6.965 22.08-5.967 30.32 1.744L655.715 513c-4.64-10.379-1.65-22.996 7.744-29.96z" fill="#FFE39A" p-id="1306"></path><path d="M597.48 427.443c8.159-3.742 18.857-4.228 29.05-0.548 12.417 4.483 23.352 14.673 31.601 30.845 11.77 23.072 13.181 50.969 4.323 83.597l-0.271 0.99-4.626-1.282c8.857-31.971 7.594-58.981-3.702-81.124-7.715-15.125-17.731-24.459-28.955-28.511-9.003-3.25-18.399-2.824-25.42 0.396-6.942 3.183-13.062 9.958-15.906 18.726-3.54 10.913-2.004 24.205 5.704 39.317 8.247 16.166 22.51 28.152 45.698 38.704l0.785 0.355-1.969 4.377-1.607-0.73c-23.633-10.883-38.483-23.47-47.182-40.525-8.262-16.196-9.948-30.791-5.995-42.979 3.204-9.878 10.07-17.591 18.036-21.404l0.435-0.204z" fill="#FFFFFF" p-id="1307"></path><path d="M512 177.8c-74.29 0-134.4 60.833-134.4 135.739v122.83c0 15.906 12.894 28.8 28.8 28.8s28.8-12.894 28.8-28.8V313.54c0-43.25 34.455-78.187 76.8-78.187s76.8 34.936 76.8 78.187v122.83c0 15.906 12.894 28.8 28.8 28.8s28.8-12.894 28.8-28.8V313.54c0-74.906-60.11-135.739-134.4-135.739z m0 19.2c63.656 0 115.2 52.209 115.2 116.539v122.83a9.6 9.6 0 1 1-19.2 0V313.54c0-53.818-43.014-97.387-96-97.387s-96 43.569-96 97.387v122.83a9.6 9.6 0 1 1-19.2 0V313.54C396.8 249.209 448.344 197 512 197z" fill="#30699A" p-id="1308"></path></svg>