<?xml version="1.0" standalone="no"?><!DOCTYPE svg PUBLIC "-//W3C//DTD SVG 1.1//EN" "http://www.w3.org/Graphics/SVG/1.1/DTD/svg11.dtd"><svg t="1602226894542" class="icon" viewBox="0 0 1024 1024" version="1.1" xmlns="http://www.w3.org/2000/svg" p-id="1285" xmlns:xlink="http://www.w3.org/1999/xlink" width="200" height="200"><defs><style type="text/css"></style></defs><path d="M446.935 309.459c34.328 0 62.117 28.075 62.117 62.659 0 34.583-27.789 62.658-62.117 62.658-16.38 0-31.77-6.437-43.272-17.705l-0.458-0.453 13.577-13.577c7.988 7.989 18.706 12.535 30.153 12.535 23.68 0 42.917-19.435 42.917-43.458 0-24.024-19.237-43.46-42.917-43.46a42.264 42.264 0 0 0-18.348 4.16l-0.606 0.296-8.58-17.176a61.457 61.457 0 0 1 27.534-6.48z" fill="#F79552" p-id="1286"></path><path d="M590.014 164.8h-152.48l-56.12 347.106h264.72L590.014 164.8zM573.669 184l49.912 308.706H403.968L453.88 184h119.789z" fill="#30699A" p-id="1287"></path><path d="M728.612 545.765a38.194 33.765 0 1 0 76.388 0 38.194 33.765 0 1 0-76.388 0Z" fill="#F79552" p-id="1288"></path><path d="M213 545.765a38.194 33.765 0 1 0 76.388 0 38.194 33.765 0 1 0-76.388 0Z" fill="#F79552" p-id="1289"></path><path d="M631.716 550.682H395.832L343.007 859.2h341.534l-52.825-308.518z m-16.192 19.2L661.774 840h-296l46.25-270.118h203.5z" fill="#30699A" p-id="1290"></path><path d="M615.524 569.882L661.774 840H388.321l48.301-270.118z" fill="#F79552" p-id="1291"></path><path d="M773.04 492.708C752.8 623.926 642.292 724.235 509 724.235c-133.291 0-243.8-100.31-264.04-231.527h528.08z" fill="#FFCEA2" p-id="1292"></path><path d="M784.235 483.108h-550.47l1.707 11.063C256.639 631.398 372.26 733.835 509 733.835c136.74 0 252.361-102.437 273.528-239.664l1.707-11.063z m-22.625 19.199l-0.07 0.367C737.332 624.874 632.317 714.635 509 714.635l-3.808-0.028c-121.666-1.826-224.774-90.993-248.732-211.933l-0.071-0.367H761.61z" fill="#30699A" p-id="1293"></path><path d="M370.483 627.14c42.336 34.83 93.671 50.48 157.863 47.08 32.464-1.718 60.999-9.558 89.955-24.063l1.128-0.569 8.679 17.127c-31.672 16.049-63.123 24.793-98.746 26.68-68.156 3.608-123.79-13.108-169.69-50.294l-1.387-1.133 12.198-14.827z" fill="#FFFFFF" p-id="1294"></path></svg>