<?xml version="1.0" standalone="no"?><!DOCTYPE svg PUBLIC "-//W3C//DTD SVG 1.1//EN" "http://www.w3.org/Graphics/SVG/1.1/DTD/svg11.dtd"><svg t="1602226743021" class="icon" viewBox="0 0 1024 1024" version="1.1" xmlns="http://www.w3.org/2000/svg" p-id="1146" xmlns:xlink="http://www.w3.org/1999/xlink" width="200" height="200"><defs><style type="text/css"></style></defs><path d="M315.667 309.778h386.666L670.607 864H347.393z" fill="#FFC95A" p-id="1147"></path><path d="M530.342 309.778h171.991L670.607 864H530.68z" fill="#FFE39A" p-id="1148"></path><path d="M509 443.556c52.993 0 99.014 28.915 122.167 71.348h59.424l-7.148 124.859h-52.276c-23.153 42.433-69.174 71.348-122.167 71.348-52.993 0-99.014-28.915-122.167-71.348h-52.276l-7.148-124.86h59.424c23.153-42.432 69.174-71.347 122.167-71.347z" fill="#FFFFFF" p-id="1149"></path><path d="M509 443.556c34.021 0 65.169 11.917 89.237 31.679L405.43 665.825a134.053 134.053 0 0 1-18.598-26.062h-64.777l-6.39-124.86h71.167c23.153-42.432 69.174-71.347 122.167-71.347z" fill="#ECF2F7" p-id="1150"></path><path d="M730.605 290.778H326.062c-16.419 0-29.729-13.31-29.729-29.729v-2.434c0-15.074 12.22-27.294 27.294-27.294L349.872 157h356.923l26.244 74.321c15.074 0 27.294 12.22 27.294 27.294v2.434c0 16.419-13.31 29.729-29.728 29.729z" fill="#CFE5FF" p-id="1151"></path><path d="M701.044 137.8l27.046 76.59 0.312 0.101c18.062 6.013 31.2 22.807 31.778 42.75l0.014 0.605 0.006 0.77v2.433c0 23.474-16.53 43.087-38.585 47.833L688.74 883.2H329.261l-32.876-574.318c-21.834-4.699-38.254-23.968-38.585-47.13v-3.137c0-20.362 13.1-37.697 31.367-43.978l0.555-0.187 0.19-0.06 27.044-76.59h384.088z m-58.988 521.162l-0.103 0.162c-27.918 42.894-76.232 70.05-129.573 71.152l-1.618 0.026-1.762 0.01c-54.128 0-103.45-26.845-132.091-69.88l-0.862-1.308-0.104-0.162h-40.287L347.393 864h323.214l11.737-205.038h-40.288zM509 443.556c-52.463 0-98.092 28.34-121.466 70.079l-0.701 1.269-59.424-0.001 7.148 124.86h52.276c23.153 42.433 69.174 71.348 122.167 71.348 52.463 0 98.092-28.34 121.466-70.08l0.701-1.268h52.276l7.147-124.86h-59.423c-22.922-42.008-68.256-70.768-120.58-71.339l-1.587-0.008z m193.322-133.579H315.677l10.633 185.726h49.633l0.104-0.16c27.918-42.894 76.232-70.05 129.573-71.153l1.618-0.025 1.762-0.01c54.128 0 103.45 26.845 132.091 69.879l0.965 1.469h49.633l10.633-185.726zM687.462 157H330.538l-26.244 74.321-0.451 0.004c-14.718 0.238-26.603 12.125-26.843 26.843V261.05c0 15.247 11.477 27.813 26.264 29.529h411.472c14.639-1.7 26.034-14.032 26.264-29.072v-2.891c0-14.923-11.977-27.05-26.843-27.29l-0.451-0.004L687.462 157z" fill="#30699A" p-id="1152"></path></svg>